<svg width="61" height="60" viewBox="0 0 61 60" fill="none" xmlns="http://www.w3.org/2000/svg">
<circle cx="30.5" cy="30" r="30" fill="#222222"/>
<path d="M39.7216 29.1447C39.6811 24.5967 43.4088 22.384 43.5793 22.281C41.4681 19.1723 38.1959 18.7476 37.046 18.7137C34.2978 18.4216 31.632 20.3746 30.232 20.3746C28.8041 20.3746 26.6482 18.7419 24.3247 18.7899C21.3348 18.8365 18.5376 20.5848 17.0035 23.2999C13.8375 28.8357 16.1987 36.9708 19.232 41.4455C20.7493 43.637 22.5224 46.0839 24.8431 45.9978C27.1135 45.9032 27.9616 44.5359 30.7015 44.5359C33.4162 44.5359 34.2126 45.9978 36.5794 45.9428C39.0161 45.9032 40.5502 43.7414 42.0144 41.5302C43.7679 39.0184 44.4721 36.5447 44.5 36.4177C44.4427 36.3979 39.7678 34.5959 39.7216 29.1447Z" fill="white"/>
<path d="M35.2507 15.7701C36.4718 14.2277 37.3073 12.1294 37.0754 10C35.308 10.079 33.0976 11.2347 31.8248 12.7432C30.6987 14.0725 29.6927 16.2513 29.9526 18.3002C31.938 18.4498 33.9764 17.2885 35.2507 15.7701Z" fill="white"/>
</svg>
