<svg width="61" height="60" viewBox="0 0 61 60" fill="none" xmlns="http://www.w3.org/2000/svg">
<circle cx="30.5" cy="30" r="30" fill="#FEE500"/>
<path d="M30.5868 14.4788C21.2532 14.4788 13.7261 20.5004 13.7261 27.8107C13.7261 32.5558 16.8574 36.7108 21.5543 39.0833L19.9646 45.0208C19.9346 45.1098 19.93 45.2053 19.9512 45.2967C19.9725 45.3882 20.0188 45.4719 20.085 45.5386C20.1815 45.6237 20.3056 45.6707 20.4342 45.671C20.5409 45.6625 20.6421 45.6203 20.7233 45.5506L27.5639 40.9381C28.5737 41.0774 29.5916 41.1498 30.6109 41.1548C39.9325 41.1548 47.4716 35.1331 47.4716 27.8107C47.4716 20.4883 39.9084 14.4788 30.5868 14.4788Z" fill="#392020"/>
<path d="M19.6266 25.7031H17.7839C17.5556 25.7097 17.33 25.6512 17.1336 25.5345C17.0464 25.4798 16.9714 25.4077 16.9134 25.3228C16.8554 25.2378 16.8155 25.1417 16.7964 25.0406C16.7905 24.9765 16.7905 24.9122 16.7964 24.8481C16.7907 24.7281 16.8139 24.6085 16.8643 24.4995C16.9146 24.3905 16.9904 24.2952 17.0854 24.2218C17.2954 24.0697 17.5488 23.9894 17.808 23.9929H23.36C23.5902 23.9848 23.8173 24.0479 24.0104 24.1736C24.0996 24.2258 24.1762 24.2972 24.2345 24.3826C24.2928 24.468 24.3314 24.5652 24.3476 24.6674C24.3535 24.7275 24.3535 24.788 24.3476 24.8481C24.3533 24.9697 24.33 25.091 24.2798 25.2019C24.2295 25.3129 24.1537 25.4103 24.0585 25.4862C23.8537 25.6381 23.6027 25.7148 23.348 25.7031H21.5656V32.0379C21.5728 32.1729 21.5519 32.3078 21.5042 32.4343C21.4565 32.5607 21.3831 32.676 21.2886 32.7726C21.1979 32.8649 21.0889 32.9373 20.9686 32.985C20.8483 33.0327 20.7194 33.0547 20.59 33.0495C20.3639 33.056 20.1425 32.9837 19.9638 32.8449C19.7937 32.7093 19.6782 32.5168 19.6386 32.3028C19.6267 32.2149 19.6267 32.1258 19.6386 32.0379L19.6266 25.7031Z" fill="#FEE500"/>
<path d="M24.8794 24.4626C24.9324 24.2644 25.0568 24.0928 25.2287 23.9808C25.4118 23.877 25.6205 23.8269 25.8308 23.8363H26.2885C26.5117 23.8283 26.7326 23.8825 26.9268 23.9929C27.1325 24.1312 27.2787 24.3419 27.3363 24.583L29.7449 31.3875C29.8074 31.5651 29.8597 31.7461 29.9015 31.9296C29.9056 32.0058 29.9056 32.0821 29.9015 32.1583C29.9056 32.2757 29.884 32.3926 29.8382 32.5007C29.7925 32.6089 29.7236 32.7058 29.6365 32.7846C29.5522 32.8711 29.4509 32.9393 29.339 32.9849C29.2271 33.0304 29.107 33.0524 28.9862 33.0495C28.8004 33.068 28.6139 33.0235 28.4566 32.923C28.2993 32.8225 28.1804 32.6719 28.1191 32.4956L27.6133 31.0143H24.4458L23.94 32.4956C23.8802 32.6754 23.7599 32.8289 23.5996 32.9299C23.4392 33.0309 23.2489 33.0732 23.0609 33.0495C22.8572 33.0549 22.6577 32.9912 22.4948 32.8689C22.3361 32.7426 22.229 32.5628 22.1937 32.3631C22.1873 32.295 22.1873 32.2264 22.1937 32.1583C22.1731 32.0388 22.1731 31.9167 22.1937 31.7971C22.1937 31.6646 22.278 31.52 22.3262 31.3875L24.8794 24.4626ZM26.0838 26.0404L24.9396 29.6534H27.2158L26.0838 26.0404Z" fill="#FEE500"/>
<path d="M30.1773 24.8482C30.1651 24.5779 30.2603 24.3138 30.4423 24.1136C30.5348 24.0203 30.6458 23.9474 30.7682 23.8997C30.8906 23.852 31.0216 23.8304 31.1528 23.8365C31.3784 23.8338 31.5986 23.9058 31.7791 24.0412C31.9464 24.1825 32.0575 24.379 32.0922 24.5952C32.1041 24.6791 32.1041 24.7643 32.0922 24.8482V31.183H35.4041C35.6337 31.18 35.8594 31.2426 36.0545 31.3636C36.1422 31.4176 36.2175 31.4896 36.2756 31.5747C36.3337 31.6598 36.3733 31.756 36.3917 31.8574C36.3917 31.8574 36.3917 31.9779 36.3917 32.0381C36.3974 32.158 36.3741 32.2775 36.3238 32.3865C36.2735 32.4955 36.1976 32.5909 36.1027 32.6644C35.8927 32.8164 35.6393 32.8966 35.3801 32.8931H31.3094C31.0501 32.9098 30.7924 32.8423 30.5747 32.7005C30.38 32.5549 30.2503 32.3387 30.2134 32.0983C30.2046 31.966 30.2046 31.8332 30.2134 31.7008L30.1773 24.8482Z" fill="#FEE500"/>
<path d="M36.6085 24.8483C36.6013 24.5788 36.6959 24.3165 36.8735 24.1137C37.054 23.9497 37.2855 23.8528 37.529 23.8397C37.7726 23.8265 38.0132 23.8978 38.2103 24.0414C38.3812 24.1814 38.4965 24.3778 38.5355 24.5953C38.5414 24.6795 38.5414 24.7641 38.5355 24.8483V27.7989L41.5824 24.2822C41.6998 24.1622 41.8245 24.0497 41.9558 23.9451C42.0795 23.8714 42.2213 23.8338 42.3653 23.8366C42.5758 23.8354 42.7816 23.8985 42.9554 24.0173C43.0373 24.0724 43.1072 24.1435 43.161 24.2263C43.2148 24.3091 43.2514 24.4018 43.2685 24.499C43.2734 24.5229 43.2734 24.5475 43.2685 24.5713C43.2627 24.5991 43.2627 24.6278 43.2685 24.6556C43.2681 24.7823 43.2349 24.9068 43.1722 25.0169C43.1083 25.1335 43.0315 25.2425 42.9434 25.342L40.9441 27.534L43.3528 31.2674V31.3878C43.4779 31.5604 43.5754 31.7515 43.6419 31.954V32.0141C43.6558 32.1536 43.6357 32.2945 43.5832 32.4245C43.5308 32.5546 43.4476 32.6699 43.3408 32.7608C43.1399 32.9126 42.8941 32.9932 42.6423 32.9897C42.4749 32.9966 42.3088 32.9591 42.1605 32.8812C42.0001 32.7736 41.8679 32.6291 41.7751 32.4597L39.5351 28.8467L38.4632 29.9668V31.9779C38.4704 32.2474 38.3758 32.5097 38.1983 32.7125C38.1031 32.8056 37.9899 32.8782 37.8656 32.9259C37.7413 32.9735 37.6086 32.9952 37.4757 32.9897C37.2534 32.9943 37.0364 32.9219 36.8614 32.7849C36.6913 32.6493 36.5759 32.4569 36.5363 32.243C36.5244 32.1551 36.5244 32.0658 36.5363 31.9779L36.6085 24.8483Z" fill="#FEE500"/>
</svg>
