<svg width="287" height="47" viewBox="0 0 287 47" fill="none" xmlns="http://www.w3.org/2000/svg">
<g clip-path="url(#clip0_225_1803)">
<path d="M46.0026 9.00892C45.8635 8.83402 45.7219 8.66158 45.573 8.4916C44.809 7.59491 43.9741 6.7598 43.0807 5.99121C41.3403 4.49097 39.3753 3.24693 37.2419 2.32068C36.4218 1.96348 35.5747 1.65062 34.7082 1.3895C34.7058 1.3895 34.7033 1.38703 34.7009 1.38703C34.6984 1.38703 34.696 1.38457 34.6936 1.38457C34.6106 1.35994 34.53 1.3353 34.447 1.31313C34.4446 1.31313 34.4421 1.31067 34.4397 1.31067C34.2639 1.25893 34.0858 1.21213 33.9076 1.16532H33.9051C33.8343 1.14562 33.7635 1.12591 33.6903 1.11113C32.0524 0.699734 30.3462 0.465707 28.5887 0.428755H28.5496C28.4032 0.426292 28.2567 0.423828 28.1102 0.423828C25.4984 0.423828 22.9891 0.862321 20.6506 1.66787L20.6482 1.67033C15.9298 3.29374 11.8997 6.41984 9.11702 10.4845C9.02183 10.62 8.92907 10.758 8.83875 10.8984C8.04788 12.1055 7.36684 13.3938 6.80786 14.7438C7.18621 14.4999 7.57433 14.2708 7.97465 14.0639C8.19433 13.9432 8.4189 13.8299 8.64592 13.7264C9.56372 13.2928 10.5279 12.9455 11.5311 12.6992C11.9388 12.5957 12.3538 12.5095 12.7736 12.443C13.6109 12.3025 14.4701 12.2311 15.3464 12.2311C17.1454 12.2311 18.876 12.5341 20.4871 13.0908C20.636 13.1426 20.7824 13.1943 20.9265 13.251C21.7588 13.5663 22.5595 13.9506 23.3186 14.3965C25.6815 15.7834 27.6587 17.7714 29.0403 20.1511C29.0403 20.1511 29.0403 20.1511 29.0403 20.1535C29.3869 20.7497 29.6969 21.3655 29.9654 22.0085C29.9776 22.0405 29.9898 22.0676 30.002 22.0996V22.1021C30.1143 22.3706 30.2168 22.6416 30.3144 22.9175C30.3559 23.0407 30.3974 23.1614 30.4365 23.2846C30.6757 24.0187 30.8612 24.7774 30.9906 25.5534C31.7375 25.1272 32.4698 24.6813 33.1875 24.2133C33.5194 23.999 33.8465 23.7797 34.1712 23.5555C34.3176 23.457 34.4641 23.356 34.6081 23.255C34.6106 23.255 34.6106 23.255 34.613 23.2525C35.2281 22.8165 35.8311 22.3682 36.4242 21.9026C36.4242 21.9026 36.4266 21.9026 36.4266 21.9001C37.5959 20.9862 38.7187 20.0156 39.7903 18.9883C39.9294 18.8578 40.0661 18.7247 40.2004 18.5917C41.8017 17.025 43.2858 15.3375 44.6405 13.5466C44.8749 13.2362 45.1068 12.9233 45.3338 12.608C45.8903 11.8345 46.42 11.0413 46.9277 10.2308C46.6324 9.812 46.3248 9.40553 46.0026 9.00892ZM39.5462 16.2711C39.4242 16.382 39.3021 16.4929 39.1776 16.6062C38.5283 17.1875 37.8644 17.7541 37.1858 18.301C36.0361 19.2273 34.8449 20.1018 33.6122 20.9172C33.3022 21.1241 32.9922 21.3261 32.6773 21.5232C32.5919 21.2103 32.4967 20.9024 32.3942 20.5969C31.8767 19.0474 31.1444 17.5965 30.2339 16.281C28.2738 13.4431 25.4862 11.2309 22.2251 9.99922C22.0908 9.94749 21.9541 9.89822 21.8174 9.85142C20.0721 9.24049 18.1974 8.91038 16.2471 8.91038C15.5758 8.91038 14.9143 8.9498 14.265 9.02617C14.2894 8.98429 14.3139 8.94241 14.3383 8.90053C15.2927 8.73302 16.2764 8.64433 17.2796 8.64433C18.9542 8.64433 20.5725 8.88821 22.1006 9.34395C22.2397 9.38336 22.3764 9.42771 22.5131 9.47205C25.9597 10.5929 28.928 12.7903 31.0248 15.675C31.6423 15.3079 32.3624 15.0985 33.1313 15.0985C34.7741 15.0985 36.1972 16.0568 36.8758 17.4487C37.5568 16.9092 38.2232 16.35 38.8725 15.7735C38.9946 15.6701 39.1117 15.5617 39.2313 15.4557C40.2858 14.5049 41.2939 13.5096 42.2581 12.4701C41.7236 12.034 41.3794 11.3689 41.3794 10.62C41.3794 9.68883 41.9115 8.88329 42.6853 8.49653C40.879 5.39259 38.1353 2.91437 34.8498 1.45355C38.3648 2.74193 41.3403 5.16595 43.3395 8.28467C43.7081 8.85865 44.0449 9.4548 44.3427 10.0731C44.4575 10.3047 44.5649 10.5387 44.6649 10.7752C44.4672 11.0216 44.2695 11.2654 44.0693 11.5069C43.6934 11.9601 43.3102 12.406 42.9196 12.8445C41.8505 14.0417 40.7252 15.1848 39.5462 16.2711Z" fill="url(#paint0_linear_225_1803)"/>
<path d="M6.84686 25.7183C7.02505 25.6665 7.21544 25.6394 7.41072 25.6394C8.53113 25.6394 9.44161 26.5435 9.46602 27.6693C11.0453 27.6028 12.6051 27.4575 14.1429 27.2382C14.3724 27.2062 14.6018 27.1717 14.8288 27.1347C16.3203 26.9007 17.7873 26.5977 19.2299 26.2257C19.1689 26.0139 19.1347 25.7872 19.1347 25.5532C19.1347 24.5531 19.7474 23.7007 20.614 23.3534C20.0696 21.6733 19.7767 19.8824 19.7767 18.02C19.7767 16.7981 19.9036 15.6058 20.1453 14.4554C18.6319 13.9701 17.0184 13.709 15.3463 13.709C14.3284 13.709 13.3325 13.8051 12.3683 13.9923C11.968 14.0686 11.575 14.1598 11.1869 14.2657C9.96642 14.5983 8.80208 15.0762 7.71584 15.6797C6.91276 17.6702 6.47339 19.8479 6.47339 22.129C6.47339 23.3607 6.60276 24.5604 6.84686 25.7183Z" fill="url(#paint1_linear_225_1803)"/>
<path d="M24.6025 25.5951C24.4487 25.2896 24.3023 24.9792 24.1656 24.6639C23.3185 22.703 22.8499 20.5401 22.8499 18.2664C22.8499 17.3992 22.9182 16.5493 23.05 15.7216C22.2714 15.2831 21.4512 14.9087 20.5993 14.6082C20.3772 15.7118 20.2624 16.8523 20.2624 18.02C20.2624 19.8331 20.5407 21.5822 21.0582 23.2228C21.295 23.9889 21.5879 24.7304 21.9272 25.4448C22.0785 25.7651 22.2396 26.0779 22.4105 26.3859C22.2738 26.4327 22.1371 26.477 22.0004 26.5214C21.2657 26.7603 20.5261 26.9796 19.7767 27.1816C18.3853 27.556 16.9671 27.8713 15.527 28.1177C15.3195 28.1546 15.112 28.1891 14.9021 28.2236C13.0274 28.5217 11.1137 28.7089 9.1731 28.7803C8.71907 28.7976 8.26261 28.8074 7.80615 28.8099C7.67434 28.8124 7.54497 28.8124 7.41315 28.8124H7.32284C7.16906 28.4502 7.02992 28.0832 6.90543 27.7087C6.70527 27.1224 6.53684 26.5214 6.40259 25.908C6.1292 24.691 5.98762 23.4273 5.98762 22.129C5.98762 19.9883 6.37574 17.9363 7.08606 16.0468C6.74677 16.2562 6.41724 16.4754 6.09503 16.7095C5.40423 18.9192 5.0332 21.2718 5.0332 23.7106C5.0332 25.0458 5.14549 26.3489 5.35785 27.6225C5.35785 27.6225 5.35785 27.625 5.35785 27.6274C5.36029 27.6422 5.36273 27.6545 5.36518 27.6693C5.41644 27.9699 5.47258 28.2679 5.53604 28.5635C5.53604 28.566 5.53604 28.5685 5.53604 28.5685C5.55069 28.6399 5.56534 28.7089 5.58242 28.7779C5.77282 29.6499 6.01203 30.5023 6.30007 31.3325C7.08606 31.3768 7.87694 31.4014 8.67514 31.4039C8.74593 31.4064 8.81671 31.4064 8.8875 31.4064H9.16333C11.946 31.3891 14.6702 31.1157 17.3113 30.6107C17.4602 30.5811 17.6067 30.554 17.7556 30.522C19.7669 30.118 21.7295 29.576 23.631 28.9109C23.7579 28.8666 23.8824 28.8222 24.0069 28.7754C24.7099 28.5241 25.4031 28.2532 26.089 27.9674C25.5301 27.2259 25.0321 26.4327 24.6025 25.5951Z" fill="url(#paint2_linear_225_1803)"/>
<path d="M57.812 0L46.9277 6.88778L47.311 6.85329C48.59 6.73998 49.8496 6.85822 51.0432 7.17847C50.9456 7.39279 50.8504 7.60957 50.7503 7.82143C50.0034 9.38325 49.171 10.8983 48.2581 12.3542C44.1548 18.9094 38.4307 24.3289 31.657 28.0438C31.5105 28.1226 31.3641 28.2039 31.2152 28.2828C31.1957 28.2926 31.1737 28.3049 31.1517 28.3148C30.0679 28.8912 28.9573 29.4258 27.8247 29.9111C22.4204 32.2341 16.4717 33.5201 10.2252 33.5201C9.18295 33.5201 8.15041 33.4831 7.12765 33.4141C6.60528 33.3772 6.08535 33.3328 5.56786 33.2786C5.37747 33.2589 5.18707 33.2392 4.99668 33.217C4.76722 33.1899 4.53777 33.1604 4.30832 33.1284C3.89824 33.0766 3.48815 33.015 3.08051 32.9485C2.04065 32.7835 1.01545 32.579 0 32.3401C0.00244097 32.3524 0.00488195 32.3622 0.0097639 32.3745C1.39624 32.8229 2.80956 33.2072 4.2473 33.5225C4.62565 33.6063 5.00644 33.6851 5.38967 33.759C5.58007 33.796 5.77291 33.8329 5.96574 33.8649C6.1122 33.892 6.2611 33.9191 6.40756 33.9438C6.75662 34.0029 7.10568 34.0595 7.45718 34.1088C9.66138 34.434 11.9168 34.6015 14.2114 34.6015C19.8207 34.6015 25.1982 33.6013 30.1753 31.7661C30.4145 31.6774 30.6513 31.5887 30.8881 31.4976C30.9686 31.4655 31.0468 31.436 31.1273 31.404C31.7717 31.1502 32.4088 30.8817 33.0362 30.6009C39.7854 27.5856 45.6926 22.9987 50.2987 17.2983C51.4875 15.8301 52.5884 14.2855 53.594 12.6744C54.236 11.6472 54.8389 10.5928 55.4028 9.51381C56.4622 10.445 57.3507 11.5905 58 12.9109L57.812 0Z" fill="url(#paint3_linear_225_1803)"/>
<path d="M7.98193 35.1064C10.1056 38.9199 13.2618 42.0681 17.0697 44.1645C17.7898 44.5636 18.5343 44.9233 19.2983 45.2386H19.3007C22.0151 46.3742 24.9906 46.9999 28.1102 46.9999C33.5316 46.9999 38.5161 45.1129 42.4534 41.9548C43.5298 41.0926 44.5258 40.1368 45.4314 39.0972C25.2518 50.1137 7.98193 35.1064 7.98193 35.1064Z" fill="url(#paint4_linear_225_1803)"/>
<path d="M50.8625 19.8308C46.3955 25.1617 40.73 29.4382 34.2859 32.2392C33.683 32.5003 33.0727 32.7516 32.4551 32.9856C31.8913 33.2024 31.3225 33.4068 30.7465 33.599H30.744C30.578 33.6581 30.412 33.7123 30.2461 33.764C25.9182 35.1633 21.3072 35.9195 16.5205 35.9195C13.6011 35.9195 10.7451 35.6387 7.97949 35.1017C7.97949 35.1041 7.97949 35.1041 7.98193 35.1066C7.98193 35.1066 27.0801 46.4335 50.389 29.788C50.472 29.4826 50.5501 29.1722 50.6184 28.8593C50.9895 27.2039 51.1847 25.4795 51.1847 23.7107C51.1847 22.3879 51.0749 21.0921 50.8625 19.8308Z" fill="url(#paint5_linear_225_1803)"/>
<path d="M7.98193 35.1064C7.98193 35.1064 25.2518 50.1137 45.4314 39.0972C45.8244 38.6488 46.1978 38.1833 46.5542 37.7029C47.6722 36.2076 48.6144 34.5718 49.3491 32.8253C49.7641 31.8448 50.1132 30.8323 50.389 29.7878C27.0801 46.4333 7.98193 35.1064 7.98193 35.1064Z" fill="#00774B"/>
</g>
<path d="M86.7236 28.2942C86.7236 20.4781 81.8063 16 75.3786 16C68.9005 16 64 20.4781 64 28.2942C64 36.0773 68.9005 40.5885 75.3786 40.5885C81.8063 40.5885 86.7236 36.1103 86.7236 28.2942ZM69.1355 28.2942C69.1355 23.1716 71.6025 20.412 75.3786 20.3955C79.1211 20.412 81.6049 23.1716 81.5882 28.2942C81.6049 33.4003 79.1211 36.1764 75.3786 36.193C71.6025 36.1764 69.1355 33.4003 69.1355 28.2942Z" fill="white"/>
<path d="M94.7634 29.8806C94.7634 27.5176 96.2235 26.1461 98.3213 26.1461C100.402 26.1461 101.611 27.4515 101.611 29.6823V40.258H106.578V28.823C106.578 24.6093 104.078 22.081 100.268 22.081C97.4989 22.081 95.6696 23.3534 94.8305 25.452H94.6291V16.3305H89.7957V40.258H94.7634V29.8806Z" fill="white"/>
<path d="M117.522 16.3305V40.258H122.423V24.5267H122.624L128.968 40.1588H132.325L138.668 24.5928H138.87V40.258H143.77V16.3305H137.527L130.781 32.5576H130.512L123.765 16.3305H117.522Z" fill="white"/>
<path d="M150.232 47C154.076 46.9835 156.073 45.1327 157.113 42.2409L164.229 22.3124H158.959L155.099 35.532H154.898L151.072 22.3124H145.869L152.414 40.7537L152.112 41.5139C151.508 43.0672 150.719 43.1663 149.729 43.1663C149.108 43.1663 148.353 43.1498 147.715 43.1002V46.9009C148.353 46.967 149.259 46.9835 150.232 47Z" fill="white"/>
<path d="M173.763 40.258H184.068C189.556 40.258 192.442 37.4488 192.459 33.6482C192.442 30.1119 189.858 27.9638 187.122 27.8316V27.6002C189.623 27.0549 191.503 25.2868 191.486 22.4776C191.503 18.8753 188.784 16.3305 183.43 16.3305H173.763V40.258ZM178.798 36.1599V29.7484H183.195C185.679 29.7484 187.24 31.1695 187.223 33.1855C187.24 34.9867 185.981 36.1764 183.061 36.1599H178.798ZM178.798 26.3443V20.3625H182.792C185.092 20.3625 186.401 21.5357 186.384 23.2708C186.401 25.1876 184.806 26.3609 182.692 26.3443H178.798Z" fill="white"/>
<path d="M194.222 35.2345C194.239 38.7873 196.807 40.605 200.298 40.5885C203 40.605 204.745 39.4318 205.634 37.7793H205.769V40.258H210.468V28.162C210.485 23.8326 206.725 22.081 202.748 22.081C197.914 22.081 195.162 24.5267 194.86 27.6333H199.593C199.861 26.4104 200.919 25.6668 202.614 25.6503C204.476 25.6668 205.517 26.5261 205.534 28.0299V29.484C204.762 29.5171 202.312 29.6327 201.002 29.7154C197.495 29.9302 194.239 31.2356 194.222 35.2345ZM198.989 35.1023C198.989 33.7143 200.079 32.9046 201.808 32.7559C202.647 32.6898 204.779 32.5741 205.534 32.541V33.8465C205.551 35.7468 203.973 37.201 201.707 37.2175C200.113 37.201 198.989 36.4739 198.989 35.1023Z" fill="white"/>
<path d="M218.776 29.8806C218.776 27.5176 220.203 26.1461 222.267 26.1461C224.331 26.1461 225.54 27.468 225.556 29.6823V40.258H230.49V28.823C230.507 24.6423 228.023 22.081 224.214 22.081C221.512 22.081 219.565 23.3865 218.743 25.452H218.541V22.3124H213.808V40.258H218.776V29.8806Z" fill="white"/>
<path d="M242.088 40.6215C246.921 40.605 249.959 37.8124 250.177 33.7473H245.512C245.193 35.6477 243.901 36.7217 242.155 36.7217C239.738 36.7217 238.194 34.7388 238.194 31.2687C238.194 27.8646 239.772 25.8982 242.155 25.8817C244.035 25.8982 245.21 27.121 245.512 28.8891H250.177C249.976 24.7745 246.787 22.081 242.088 22.081C236.567 22.081 233.143 25.8486 233.16 31.3348C233.143 36.8044 236.499 40.605 242.088 40.6215Z" fill="white"/>
<path d="M252.813 40.258H257.781V34.5075L259.174 32.9542L264.192 40.258H270.032L262.866 30.0789L269.663 22.3124H263.957L258.049 29.1866H257.781V16.3305H252.813V40.258Z" fill="white"/>
<path d="M281.932 27.6333H286.597C286.329 24.2292 283.476 22.081 278.877 22.081C274.178 22.081 271.174 24.2292 271.191 27.6663C271.174 30.3268 272.953 32.0784 276.427 32.7559L279.448 33.3507C281.16 33.6978 281.932 34.2761 281.932 35.2015C281.932 36.3582 280.723 37.0688 278.911 37.0853C277.081 37.0688 275.923 36.3417 275.689 34.9371H270.687C271.107 38.4403 273.993 40.605 278.911 40.6215C283.761 40.605 286.983 38.242 287 34.7058C286.983 32.1279 285.271 30.5746 281.73 29.8475L278.474 29.1866C276.746 28.8396 276.108 28.2116 276.125 27.4019C276.108 26.3113 277.333 25.5677 278.944 25.5512C280.606 25.5677 281.713 26.3774 281.932 27.6333Z" fill="white"/>
<defs>
<linearGradient id="paint0_linear_225_1803" x1="39.357" y1="18.662" x2="30.368" y2="4.84684" gradientUnits="userSpaceOnUse">
<stop stop-color="#00774B"/>
<stop offset="1" stop-color="#12B679"/>
</linearGradient>
<linearGradient id="paint1_linear_225_1803" x1="12.3673" y1="14.3445" x2="13.0075" y2="23.6011" gradientUnits="userSpaceOnUse">
<stop stop-color="#00774B"/>
<stop offset="1" stop-color="#12B679"/>
</linearGradient>
<linearGradient id="paint2_linear_225_1803" x1="13.8095" y1="15.3728" x2="14.433" y2="26.5296" gradientUnits="userSpaceOnUse">
<stop stop-color="#00774B"/>
<stop offset="1" stop-color="#12B679"/>
</linearGradient>
<linearGradient id="paint3_linear_225_1803" x1="53.8571" y1="6.22058" x2="5.49788" y2="35.2067" gradientUnits="userSpaceOnUse">
<stop stop-color="#00774B"/>
<stop offset="0.572243" stop-color="#13B77A"/>
</linearGradient>
<linearGradient id="paint4_linear_225_1803" x1="63.5238" y1="45.6175" x2="15.1895" y2="40.789" gradientUnits="userSpaceOnUse">
<stop stop-color="#019E64"/>
<stop offset="1" stop-color="#005C3A"/>
</linearGradient>
<linearGradient id="paint5_linear_225_1803" x1="12.4285" y1="36.6323" x2="49.0268" y2="29.0442" gradientUnits="userSpaceOnUse">
<stop stop-color="#00774B"/>
<stop offset="1" stop-color="#12B679"/>
</linearGradient>
<clipPath id="clip0_225_1803">
<rect width="58" height="47" fill="white"/>
</clipPath>
</defs>
</svg>
